<?xml version="1.0" encoding="utf-8"?>
<!-- Generator: Adobe Illustrator 24.1.2, SVG Export Plug-In . SVG Version: 6.00 Build 0)  -->
<svg version="1.1" id="Layer_1" xmlns="http://www.w3.org/2000/svg" xmlns:xlink="http://www.w3.org/1999/xlink" x="0px" y="0px"
	 viewBox="0 0 850.4 850.4" style="enable-background:new 0 0 850.4 850.4;" xml:space="preserve">
<style type="text/css">
	.st0{fill:#B1B3B4;}
	.st1{fill:#FFFFFF;}
</style>
<g>
	<g>
		<path d="M492.1,447.4H357.9c-4.1,0-7.4-3.3-7.4-7.4v-29.1c0-4.1,3.3-7.4,7.4-7.4h134.1c4.1,0,7.4,3.3,7.4,7.4v29.1
			C499.4,444.1,496.1,447.4,492.1,447.4z"/>
		<path class="st0" d="M494.4,448H355.6c-3.1,0-5.6-2.6-5.6-5.8v-33.5c0-3.2,2.5-5.8,5.6-5.8h138.7c3.1,0,5.6,2.6,5.6,5.8v33.5
			C500,445.4,497.5,448,494.4,448z M355.6,404.1c-2.5,0-4.5,2.1-4.5,4.6v33.5c0,2.5,2,4.6,4.5,4.6h138.7c2.5,0,4.5-2.1,4.5-4.6
			v-33.5c0-2.5-2-4.6-4.5-4.6H355.6z"/>
	</g>
	<g>
		<path class="st1" d="M399.9,415.8l-0.6,2.1h-1.4l2.3-7.4h1.7l2.4,7.4h-1.4l-0.7-2.1H399.9z M402,414.8l-0.6-1.8
			c-0.1-0.4-0.3-1-0.4-1.4h0c-0.1,0.4-0.2,0.9-0.3,1.4l-0.6,1.8H402z"/>
		<path class="st1" d="M406.3,412.6l0.8,2.7c0.2,0.5,0.3,0.9,0.4,1.3h0c0.1-0.4,0.2-0.9,0.4-1.3l0.8-2.7h1.4l-2,5.3h-1.3l-1.9-5.3
			H406.3z"/>
		<path class="st1" d="M415.4,416.6c0,0.5,0,1,0.1,1.3h-1.2l-0.1-0.6h0c-0.3,0.4-0.9,0.7-1.5,0.7c-1.1,0-1.6-0.8-1.6-1.6
			c0-1.3,1.2-2,3.1-2v-0.1c0-0.4-0.1-0.9-1.1-0.9c-0.5,0-1.1,0.2-1.4,0.4l-0.3-0.9c0.4-0.2,1.1-0.5,1.9-0.5c1.7,0,2.2,1.1,2.2,2.3
			V416.6z M414.1,415.3c-0.9,0-1.8,0.2-1.8,1c0,0.5,0.3,0.8,0.8,0.8c0.5,0,0.9-0.4,1-0.7c0-0.1,0-0.2,0-0.3V415.3z"/>
		<path class="st1" d="M417.9,411.8c-0.4,0-0.7-0.3-0.7-0.7c0-0.4,0.3-0.7,0.7-0.7c0.5,0,0.7,0.3,0.7,0.7
			C418.7,411.5,418.4,411.8,417.9,411.8L417.9,411.8z M417.3,417.9v-5.3h1.3v5.3H417.3z"/>
		<path class="st1" d="M420.5,410.1h1.3v7.8h-1.3V410.1z"/>
		<path class="st1" d="M427.8,416.6c0,0.5,0,1,0.1,1.3h-1.2l-0.1-0.6h0c-0.3,0.4-0.9,0.7-1.5,0.7c-1.1,0-1.6-0.8-1.6-1.6
			c0-1.3,1.2-2,3.1-2v-0.1c0-0.4-0.1-0.9-1.1-0.9c-0.5,0-1.1,0.2-1.4,0.4l-0.3-0.9c0.4-0.2,1.1-0.5,1.9-0.5c1.7,0,2.2,1.1,2.2,2.3
			V416.6z M426.5,415.3c-0.9,0-1.8,0.2-1.8,1c0,0.5,0.3,0.8,0.8,0.8c0.5,0,0.9-0.4,1-0.7c0-0.1,0-0.2,0-0.3V415.3z"/>
		<path class="st1" d="M429.7,410.1h1.3v3.2h0c0.3-0.5,0.9-0.9,1.7-0.9c1.3,0,2.2,1.1,2.2,2.7c0,1.9-1.2,2.9-2.4,2.9
			c-0.7,0-1.3-0.3-1.7-0.9h0l-0.1,0.8h-1.1c0-0.4,0-1,0-1.5V410.1z M431,415.7c0,0.1,0,0.2,0,0.3c0.1,0.5,0.6,0.9,1.2,0.9
			c0.8,0,1.3-0.7,1.3-1.8c0-0.9-0.4-1.7-1.3-1.7c-0.5,0-1,0.4-1.2,1c0,0.1,0,0.2,0,0.4V415.7z"/>
		<path class="st1" d="M436.4,410.1h1.3v7.8h-1.3V410.1z"/>
		<path class="st1" d="M440.6,415.6c0,1,0.8,1.4,1.6,1.4c0.6,0,1-0.1,1.5-0.2l0.2,0.9c-0.5,0.2-1.1,0.3-1.8,0.3
			c-1.7,0-2.7-1.1-2.7-2.7c0-1.5,0.9-2.9,2.6-2.9c1.7,0,2.3,1.4,2.3,2.6c0,0.3,0,0.4,0,0.6H440.6z M442.9,414.7
			c0-0.5-0.2-1.3-1.1-1.3c-0.8,0-1.2,0.8-1.2,1.3H442.9z"/>
		<path class="st1" d="M450.7,418c-1.5,0-2.6-1-2.6-2.8c0-1.8,1.1-2.8,2.7-2.8c1.6,0,2.6,1.1,2.6,2.7C453.4,417.1,452,418,450.7,418
			L450.7,418z M450.7,417c0.8,0,1.3-0.7,1.3-1.8c0-0.8-0.4-1.8-1.3-1.8c-0.9,0-1.3,0.9-1.3,1.8C449.4,416.3,449.9,417,450.7,417
			L450.7,417z"/>
		<path class="st1" d="M454.9,414.1c0-0.6,0-1.1,0-1.6h1.2l0.1,0.8h0c0.2-0.4,0.8-0.9,1.7-0.9c0.9,0,1.9,0.6,1.9,2.3v3.2h-1.3v-3
			c0-0.8-0.3-1.3-1-1.3c-0.5,0-0.9,0.4-1,0.8c0,0.1-0.1,0.3-0.1,0.4v3.1h-1.3V414.1z"/>
		<path class="st1" d="M465.8,411.2v1.4h1.3v1h-1.3v2.3c0,0.7,0.2,1,0.7,1c0.2,0,0.4,0,0.5-0.1l0,1c-0.2,0.1-0.5,0.1-1,0.1
			c-0.5,0-0.9-0.2-1.1-0.4c-0.3-0.3-0.4-0.8-0.4-1.5v-2.5h-0.7v-1h0.7v-1L465.8,411.2z"/>
		<path class="st1" d="M468.5,410.1h1.3v3.2h0c0.2-0.3,0.4-0.5,0.7-0.6c0.3-0.2,0.6-0.2,0.9-0.2c0.9,0,1.8,0.6,1.8,2.3v3.1h-1.3v-3
			c0-0.8-0.3-1.4-1-1.4c-0.5,0-0.9,0.4-1,0.8c0,0.1-0.1,0.3-0.1,0.4v3.2h-1.3V410.1z"/>
		<path class="st1" d="M476.1,415.6c0,1,0.8,1.4,1.6,1.4c0.6,0,1-0.1,1.5-0.2l0.2,0.9c-0.5,0.2-1.1,0.3-1.8,0.3
			c-1.7,0-2.7-1.1-2.7-2.7c0-1.5,0.9-2.9,2.6-2.9c1.7,0,2.3,1.4,2.3,2.6c0,0.3,0,0.4,0,0.6H476.1z M478.4,414.7
			c0-0.5-0.2-1.3-1.1-1.3c-0.8,0-1.2,0.8-1.2,1.3H478.4z"/>
	</g>
	<g>
		<g>
			<path class="st1" d="M383.5,425.1c0-3.7,2.9-5.4,3.1-5.5c-1.7-2.5-4.3-2.8-5.2-2.9c-2.2-0.2-4.3,1.3-5.4,1.3
				c-1.1,0-2.9-1.3-4.7-1.3c-2.4,0-4.6,1.4-5.8,3.6c-2.5,4.5-0.6,11,1.8,14.6c1.2,1.8,2.6,3.7,4.5,3.7c1.8-0.1,2.5-1.2,4.7-1.2
				c2.2,0,2.8,1.2,4.7,1.1c1.9,0,3.2-1.8,4.3-3.6c1.4-2,2-4,2-4.1C387.2,430.9,383.5,429.4,383.5,425.1"/>
			<path class="st1" d="M379.9,414.3c1-1.2,1.6-2.9,1.5-4.6c-1.4,0.1-3.2,1-4.2,2.2c-0.9,1.1-1.7,2.8-1.5,4.5
				C377.3,416.5,378.9,415.5,379.9,414.3"/>
		</g>
		<g>
			<path class="st1" d="M409.6,438.3h-2.5l-1.4-4.4h-4.8l-1.3,4.4h-2.5l4.8-15.1h2.9L409.6,438.3z M405.3,432l-1.2-3.9
				c-0.1-0.4-0.4-1.3-0.7-2.8h0c-0.1,0.6-0.4,1.6-0.7,2.8l-1.2,3.9H405.3z"/>
			<path class="st1" d="M421.9,432.8c0,1.8-0.5,3.3-1.5,4.4c-0.9,1-2,1.4-3.3,1.4c-1.4,0-2.4-0.5-3-1.5h0v5.7h-2.4V431
				c0-1.2,0-2.4-0.1-3.6h2.1l0.1,1.7h0c0.8-1.3,2-1.9,3.6-1.9c1.3,0,2.3,0.5,3.1,1.5C421.4,429.8,421.9,431.1,421.9,432.8
				 M419.5,432.9c0-1.1-0.2-1.9-0.7-2.6c-0.5-0.7-1.2-1.1-2.1-1.1c-0.6,0-1.1,0.2-1.6,0.6c-0.5,0.4-0.8,0.9-0.9,1.6
				c-0.1,0.3-0.1,0.5-0.1,0.7v1.8c0,0.8,0.2,1.5,0.7,2c0.5,0.5,1.1,0.8,1.9,0.8c0.9,0,1.6-0.3,2.1-1
				C419.2,434.9,419.5,434,419.5,432.9"/>
			<path class="st1" d="M434.1,432.8c0,1.8-0.5,3.3-1.5,4.4c-0.9,1-2,1.4-3.3,1.4c-1.4,0-2.4-0.5-3-1.5h0v5.7h-2.4V431
				c0-1.2,0-2.4-0.1-3.6h2.1l0.1,1.7h0c0.8-1.3,2-1.9,3.6-1.9c1.3,0,2.3,0.5,3.1,1.5C433.7,429.8,434.1,431.1,434.1,432.8
				 M431.7,432.9c0-1.1-0.2-1.9-0.7-2.6c-0.5-0.7-1.2-1.1-2.1-1.1c-0.6,0-1.1,0.2-1.6,0.6c-0.5,0.4-0.8,0.9-0.9,1.6
				c-0.1,0.3-0.1,0.5-0.1,0.7v1.8c0,0.8,0.2,1.5,0.7,2c0.5,0.5,1.1,0.8,1.9,0.8c0.9,0,1.6-0.3,2.1-1
				C431.5,434.9,431.7,434,431.7,432.9"/>
			<path class="st1" d="M447.8,434.1c0,1.3-0.4,2.3-1.3,3.1c-1,0.9-2.3,1.3-4,1.3c-1.6,0-2.9-0.3-3.8-0.9l0.5-2c1,0.6,2.2,1,3.4,1
				c0.9,0,1.6-0.2,2.1-0.6c0.5-0.4,0.7-1,0.7-1.6c0-0.6-0.2-1.1-0.6-1.5c-0.4-0.4-1.1-0.8-2-1.2c-2.6-1-3.9-2.4-3.9-4.3
				c0-1.2,0.5-2.3,1.4-3c0.9-0.8,2.1-1.2,3.6-1.2c1.3,0,2.5,0.2,3.4,0.7l-0.6,2c-0.8-0.5-1.8-0.7-2.8-0.7c-0.8,0-1.5,0.2-1.9,0.6
				c-0.4,0.4-0.6,0.8-0.6,1.4c0,0.6,0.2,1.1,0.7,1.5c0.4,0.4,1.1,0.7,2.1,1.2c1.3,0.5,2.2,1.1,2.8,1.8
				C447.5,432.2,447.8,433.1,447.8,434.1"/>
			<path class="st1" d="M455.6,429.3H453v5.3c0,1.3,0.5,2,1.4,2c0.4,0,0.8,0,1.1-0.1l0.1,1.8c-0.5,0.2-1.1,0.3-1.8,0.3
				c-0.9,0-1.7-0.3-2.2-0.9c-0.5-0.6-0.8-1.6-0.8-2.9v-5.5h-1.6v-1.8h1.6v-2l2.3-0.7v2.7h2.6V429.3z"/>
			<path class="st1" d="M467.4,432.8c0,1.7-0.5,3-1.4,4.1c-1,1.1-2.3,1.7-3.9,1.7c-1.6,0-2.8-0.5-3.7-1.6c-0.9-1.1-1.4-2.4-1.4-4
				c0-1.7,0.5-3.1,1.4-4.1c1-1.1,2.2-1.6,3.9-1.6c1.6,0,2.8,0.5,3.8,1.6C467,429.9,467.4,431.2,467.4,432.8 M465,432.9
				c0-1-0.2-1.9-0.6-2.6c-0.5-0.9-1.2-1.3-2.1-1.3c-1,0-1.7,0.4-2.2,1.3c-0.4,0.7-0.6,1.6-0.6,2.6c0,1,0.2,1.9,0.6,2.6
				c0.5,0.9,1.2,1.3,2.2,1.3c0.9,0,1.6-0.4,2.1-1.3C464.7,434.8,465,433.9,465,432.9"/>
			<path class="st1" d="M475.1,429.6c-0.2,0-0.5-0.1-0.7-0.1c-0.8,0-1.5,0.3-1.9,1c-0.4,0.6-0.6,1.3-0.6,2.1v5.7h-2.4l0-7.4
				c0-1.3,0-2.4-0.1-3.4h2.1l0.1,2.1h0.1c0.2-0.7,0.6-1.3,1.2-1.7c0.5-0.4,1.1-0.6,1.7-0.6c0.2,0,0.4,0,0.6,0V429.6z"/>
			<path class="st1" d="M485.7,432.4c0,0.4,0,0.8-0.1,1.1h-7.1c0,1.1,0.4,1.9,1,2.5c0.6,0.5,1.4,0.8,2.3,0.8c1,0,2-0.2,2.9-0.5
				l0.4,1.7c-1,0.4-2.2,0.7-3.6,0.7c-1.6,0-2.9-0.5-3.9-1.5c-0.9-1-1.4-2.3-1.4-4c0-1.6,0.4-3,1.3-4.1c0.9-1.2,2.2-1.7,3.7-1.7
				c1.5,0,2.7,0.6,3.5,1.7C485.4,429.9,485.7,431,485.7,432.4 M483.4,431.8c0-0.7-0.1-1.3-0.5-1.9c-0.4-0.7-1-1-1.9-1
				c-0.8,0-1.4,0.3-1.9,1c-0.4,0.5-0.6,1.1-0.7,1.9H483.4z"/>
		</g>
	</g>
</g>
</svg>
