<?xml version="1.0" encoding="utf-8"?>
<!-- Generator: Adobe Illustrator 24.1.2, SVG Export Plug-In . SVG Version: 6.00 Build 0)  -->
<svg version="1.1" xmlns="http://www.w3.org/2000/svg" xmlns:xlink="http://www.w3.org/1999/xlink" x="0px" y="0px"
	 viewBox="0 0 267.6 176.3" style="enable-background:new 0 0 267.6 176.3;" xml:space="preserve">
<style type="text/css">
	.st0{fill:#A7A9AC;}
	.st1{fill:#FFFFFF;}
	.st2{fill:#5BC9F4;}
	.st3{fill:url(#SVGID_1_);}
	.st4{fill:url(#SVGID_2_);}
	.st5{fill:url(#SVGID_3_);}
</style>
<g id="Google_Play">
	<g>
		<g>
			<path d="M234.9,157.8H33.6c-4.1,0-7.4-3.3-7.4-7.4v-47.7c0-4.1,3.3-7.4,7.4-7.4h201.2c4.1,0,7.4,3.3,7.4,7.4v47.7
				C242.3,154.5,239,157.8,234.9,157.8z"/>
			<path class="st0" d="M234.9,158.6H33.6c-4.5,0-8.2-3.7-8.2-8.2v-47.7c0-4.5,3.7-8.2,8.2-8.2h201.2c4.5,0,8.2,3.7,8.2,8.2v47.7
				C243.1,155,239.4,158.6,234.9,158.6z M33.6,96.2c-3.6,0-6.6,2.9-6.6,6.6v47.7c0,3.6,2.9,6.6,6.6,6.6h201.2c3.6,0,6.6-2.9,6.6-6.6
				v-47.7c0-3.6-2.9-6.6-6.6-6.6H33.6z"/>
		</g>
		<g>
			<path class="st1" d="M135.2,129.6c-3.8,0-6.9,2.9-6.9,6.8c0,3.9,3.1,6.8,6.9,6.8c3.8,0,6.9-2.9,6.9-6.8
				C142.1,132.5,139,129.6,135.2,129.6z M135.2,140.6c-2.1,0-3.9-1.7-3.9-4.1c0-2.5,1.8-4.1,3.9-4.1c2.1,0,3.9,1.7,3.9,4.1
				C139.1,138.9,137.3,140.6,135.2,140.6z M120.3,129.6c-3.8,0-6.9,2.9-6.9,6.8c0,3.9,3.1,6.8,6.9,6.8c3.8,0,6.9-2.9,6.9-6.8
				C127.1,132.5,124,129.6,120.3,129.6z M120.3,140.6c-2.1,0-3.9-1.7-3.9-4.1c0-2.5,1.8-4.1,3.9-4.1c2.1,0,3.9,1.7,3.9,4.1
				C124.1,138.9,122.3,140.6,120.3,140.6z M102.4,131.7v2.9h6.9c-0.2,1.6-0.8,2.8-1.6,3.7c-1,1-2.6,2.1-5.4,2.1
				c-4.3,0-7.6-3.4-7.6-7.7c0-4.3,3.3-7.7,7.6-7.7c2.3,0,4,0.9,5.2,2.1l2-2c-1.7-1.7-4-2.9-7.3-2.9c-5.9,0-10.8,4.8-10.8,10.6
				c0,5.9,4.9,10.6,10.8,10.6c3.2,0,5.5-1,7.4-3c1.9-1.9,2.5-4.6,2.5-6.8c0-0.7-0.1-1.3-0.2-1.8H102.4z M175.3,134
				c-0.6-1.5-2.3-4.4-5.9-4.4c-3.5,0-6.5,2.8-6.5,6.8c0,3.8,2.9,6.8,6.8,6.8c3.1,0,4.9-1.9,5.7-3l-2.3-1.6c-0.8,1.1-1.8,1.9-3.4,1.9
				c-1.5,0-2.6-0.7-3.3-2.1l9.1-3.8L175.3,134z M166,136.3c-0.1-2.6,2-4,3.6-4c1.2,0,2.2,0.6,2.5,1.5L166,136.3z M158.5,142.9h3
				v-20.1h-3V142.9z M153.6,131.1h-0.1c-0.7-0.8-2-1.5-3.6-1.5c-3.4,0-6.6,3-6.6,6.9c0,3.8,3.1,6.8,6.6,6.8c1.6,0,2.9-0.7,3.6-1.6
				h0.1v1c0,2.6-1.4,4-3.7,4c-1.8,0-3-1.3-3.4-2.4l-2.6,1.1c0.8,1.8,2.7,4,6.1,4c3.5,0,6.5-2.1,6.5-7.1V130h-2.9V131.1z
				 M150.2,140.6c-2.1,0-3.8-1.7-3.8-4.1c0-2.4,1.7-4.2,3.8-4.2c2,0,3.7,1.8,3.7,4.2C153.8,138.9,152.2,140.6,150.2,140.6z
				 M189.4,122.8h-7.2v20.1h3v-7.6h4.2c3.3,0,6.6-2.4,6.6-6.2S192.7,122.8,189.4,122.8z M189.5,132.5h-4.3v-6.9h4.3
				c2.2,0,3.5,1.9,3.5,3.4C193,130.6,191.7,132.5,189.5,132.5z M208,129.6c-2.2,0-4.4,1-5.4,3.1l2.7,1.1c0.6-1.1,1.6-1.5,2.7-1.5
				c1.6,0,3.1,0.9,3.2,2.6v0.2c-0.5-0.3-1.7-0.8-3.1-0.8c-2.9,0-5.8,1.6-5.8,4.5c0,2.7,2.4,4.4,5,4.4c2,0,3.1-0.9,3.8-2h0.1v1.6h2.9
				v-7.7C214.1,131.6,211.5,129.6,208,129.6z M207.7,140.6c-1,0-2.4-0.5-2.4-1.7c0-1.6,1.7-2.1,3.2-2.1c1.3,0,1.9,0.3,2.7,0.7
				C211,139.3,209.4,140.6,207.7,140.6z M224.7,130l-3.4,8.7h-0.1l-3.6-8.7h-3.2l5.4,12.2l-3.1,6.8h3.1l8.3-19H224.7z M197.6,142.9
				h3v-20.1h-3V142.9z"/>
			<g>
				<path class="st2" d="M42.4,106.8c-0.5,0.5-0.7,1.3-0.7,2.3v35.5c0,1,0.3,1.8,0.7,2.3l0.1,0.1L62.5,127v-0.2v-0.2l-19.9-19.9
					L42.4,106.8z"/>
				<linearGradient id="SVGID_1_" gradientUnits="userSpaceOnUse" x1="75.6493" y1="126.8014" x2="36.7637" y2="126.8014">
					<stop  offset="0" style="stop-color:#FEE000"/>
					<stop  offset="0.1941" style="stop-color:#FCCF0B"/>
					<stop  offset="0.5469" style="stop-color:#FAB318"/>
					<stop  offset="0.8279" style="stop-color:#F9A21B"/>
					<stop  offset="1" style="stop-color:#F99B1C"/>
				</linearGradient>
				<path class="st3" d="M69.1,133.7l-6.6-6.6v-0.2v-0.2l6.6-6.6l0.1,0.1l7.9,4.5c2.2,1.3,2.2,3.4,0,4.6l-7.9,4.5L69.1,133.7z"/>
				<linearGradient id="SVGID_2_" gradientUnits="userSpaceOnUse" x1="65.558" y1="130.4891" x2="28.9844" y2="167.0627">
					<stop  offset="0" style="stop-color:#EF4547"/>
					<stop  offset="1" style="stop-color:#C6186D"/>
				</linearGradient>
				<path class="st4" d="M69.2,133.6l-6.8-6.8l-20,20c0.7,0.8,2,0.9,3.3,0.1L69.2,133.6"/>
				<linearGradient id="SVGID_3_" gradientUnits="userSpaceOnUse" x1="28.8214" y1="86.3758" x2="58.6828" y2="116.2372">
					<stop  offset="0" style="stop-color:#279E6F"/>
					<stop  offset="0.3168" style="stop-color:#4DAB6D"/>
					<stop  offset="0.7398" style="stop-color:#6ABA6A"/>
					<stop  offset="1" style="stop-color:#74C169"/>
				</linearGradient>
				<path class="st5" d="M69.2,120l-23.5-13.3c-1.4-0.8-2.6-0.7-3.3,0.1l20,20L69.2,120z"/>
			</g>
		</g>
		<g>
			<path class="st1" d="M99.4,107.9c-0.6-0.5-1.4-0.9-2.3-0.9c-2,0-3.5,1.6-3.5,3.6c0,2,1.5,3.6,3.5,3.6c1.7,0,2.9-1,3-2.6h-2.7
				v-1.1h4.1c0,3.3-1.8,4.9-4.5,4.9c-2.7,0-4.8-2.2-4.8-4.8c0-2.7,2.1-4.9,4.8-4.9c1.2,0,2.4,0.5,3.2,1.3L99.4,107.9z"/>
			<path class="st1" d="M108.9,105.9v1.2h-4.3v3h3.8v1.2h-3.8v2.9h4.5v1.2h-5.7v-9.5H108.9z"/>
			<path class="st1" d="M117.2,105.9v1.2h-2.9v8.3h-1.3v-8.3h-2.9v-1.2H117.2z"/>
			<path class="st1" d="M123.3,105.9v9.5h-1.3v-9.5H123.3z"/>
			<path class="st1" d="M132,105.9v1.2h-2.9v8.3h-1.3v-8.3H125v-1.2H132z"/>
			<path class="st1" d="M141.1,105.8c2.7,0,4.8,2.2,4.8,4.9c0,2.7-2.1,4.8-4.8,4.8c-2.7,0-4.8-2.2-4.8-4.8
				C136.3,108,138.4,105.8,141.1,105.8z M141.1,114.3c2,0,3.5-1.6,3.5-3.6c0-2-1.5-3.6-3.5-3.6c-2,0-3.5,1.6-3.5,3.6
				C137.6,112.7,139.1,114.3,141.1,114.3z"/>
			<path class="st1" d="M153.4,115.4l-4.3-7.1v7.1h-1.3v-9.5h1.3l4.3,7.1v-7.1h1.3v9.5H153.4z"/>
		</g>
	</g>
</g>
<g id="App_Store">
</g>
</svg>
