<?xml version="1.0" encoding="utf-8"?>
<!-- Generator: Adobe Illustrator 24.1.2, SVG Export Plug-In . SVG Version: 6.00 Build 0)  -->
<svg version="1.1" id="图层_1" xmlns="http://www.w3.org/2000/svg" xmlns:xlink="http://www.w3.org/1999/xlink" x="0px" y="0px"
	 viewBox="0 0 125.5 53.4" style="enable-background:new 0 0 125.5 53.4;" xml:space="preserve">
<style type="text/css">
	.st0{fill:#111311;}
	.st1{fill:#B1B3B4;}
	.st2{fill:#FFFFFF;}
	.st3{font-family:'SegoePro';}
	.st4{font-size:7.36px;}
	.st5{clip-path:url(#SVGID_2_);fill:#FFFFFF;}
	.st6{fill:#101210;}
	.st7{clip-path:url(#SVGID_4_);fill:#FFFFFF;}
</style>
<g>
	<g>
		<path class="st0" d="M106.6,39.2c0,0-78.3-1.1-86.5,0c-8.2,1.1-7.4-3.3-7.4-7.4V18.4c-0.4-4.1-0.2-8.1,7.4-7.4s86.5,0,86.5,0
			c4.1,0,7.8-1.3,7.4,7.4c-0.4,8.7,0,6.2,0,13.4C115.1,40.5,110.7,39.2,106.6,39.2z"/>
		<path class="st1" d="M110.6,39.5H16.2c-2.1,0-3.8-1.7-3.8-3.7V14.3c0-2,1.7-3.7,3.8-3.7h94.4c2.1,0,3.8,1.7,3.8,3.7v21.5
			C114.4,37.9,112.7,39.5,110.6,39.5z M16.2,11.4c-1.7,0-3.1,1.3-3.1,3v21.5c0,1.6,1.4,3,3.1,3h94.4c1.7,0,3.1-1.3,3.1-3V14.3
			c0-1.6-1.4-3-3.1-3H16.2z"/>
	</g>
	<text transform="matrix(1 0 0 1 40.2301 24.8459)"><tspan x="0" y="0" class="st2 st3 st4">D</tspan><tspan x="3.7" y="0" class="st2 st3 st4">o</tspan></text>
	<text transform="matrix(1 0 0 1 49.0846 24.8459)" class="st2 st3 st4">w</text>
	<text transform="matrix(1 0 0 1 54.3321 24.8459)" class="st2 st3 st4">n</text>
	<text transform="matrix(1 0 0 1 58.3653 24.8459)"><tspan x="0" y="0" class="st2 st3 st4">l</tspan><tspan x="3.7" y="0" class="st2 st3 st4">o</tspan></text>
	<text transform="matrix(1 0 0 1 64.1134 24.8459)" class="st2 st3 st4">a</text>
	<text transform="matrix(1 0 0 1 67.6607 24.8459)" class="st2 st3 st4">d</text>
	<text transform="matrix(1 0 0 1 71.8121 24.8459)" class="st2 st3 st4"> </text>
	<text transform="matrix(1 0 0 1 73.2252 24.8459)" class="st2 st3 st4">f</text>
	<text transform="matrix(1 0 0 1 75.3888 24.8459)" class="st2 st3 st4">r</text>
	<text transform="matrix(1 0 0 1 77.6559 24.8459)"><tspan x="0" y="0" class="st2 st3 st4">o</tspan><tspan x="3.7" y="0" class="st2 st3 st4">m</tspan></text>
	<g>
		<defs>
			<polyline id="SVGID_1_" points="112.7,40.5 112.7,14.9 14.1,14.9 14.1,40.5 			"/>
		</defs>
		<clipPath id="SVGID_2_">
			<use xlink:href="#SVGID_1_"  style="overflow:visible;"/>
		</clipPath>
		<path class="st5" d="M27,19.7c0,0.1,0,0.3,0.1,0.5c-0.7,0.3-1,0.5-1,1.6v0.7l-0.5,0.1v-0.8C25.5,20.3,26.1,20,27,19.7 M28.5,19.4
			c0,0.2,0.1,0.3,0.1,0.5c1.3-0.2,1.3,0.4,1.3,1.5v0.4l0.5-0.1v-0.3C30.3,19.6,30,19.1,28.5,19.4 M23.3,23.1v-2.3
			c0-1.4,0.7-1.9,2.1-2.2c2.1-0.5,2.2,0.8,2.2,1.7v2l0.5-0.1v-1.8c0-1.6-0.5-2.8-2.8-2.3c-1.2,0.3-2.5,0.6-2.5,2.7v2.5L23.3,23.1z
			 M29.3,29.2h-3.9v-2.8l3.9-0.6V29.2z M29.3,33.2l-3.9-0.6v-3h3.9V33.2z M25,29.2H22v-2.4l3.1-0.4V29.2z M25,32.6L22,32.1v-2.6H25
			V32.6z M32.8,21.8L19,24.6v10.1l13.9,2.8l2.8-1V22.8L32.8,21.8z"/>
	</g>
	<text transform="matrix(1 0 0 1 40.2301 24.8459)"><tspan x="0" y="0" class="st2 st3 st4">D</tspan><tspan x="3.7" y="0" class="st2 st3 st4">o</tspan></text>
	<text transform="matrix(1 0 0 1 49.0846 24.8459)" class="st2 st3 st4">w</text>
	<text transform="matrix(1 0 0 1 54.3321 24.8459)" class="st2 st3 st4">n</text>
	<text transform="matrix(1 0 0 1 58.3653 24.8459)"><tspan x="0" y="0" class="st2 st3 st4">l</tspan><tspan x="3.7" y="0" class="st2 st3 st4">o</tspan></text>
	<text transform="matrix(1 0 0 1 64.1134 24.8459)" class="st2 st3 st4">a</text>
	<text transform="matrix(1 0 0 1 67.6607 24.8459)" class="st2 st3 st4">d</text>
	<text transform="matrix(1 0 0 1 71.8121 24.8459)" class="st2 st3 st4"> </text>
	<text transform="matrix(1 0 0 1 73.2252 24.8459)" class="st2 st3 st4">f</text>
	<text transform="matrix(1 0 0 1 75.3888 24.8459)" class="st2 st3 st4">r</text>
	<text transform="matrix(1 0 0 1 77.6559 24.8459)"><tspan x="0" y="0" class="st2 st3 st4">o</tspan><tspan x="3.7" y="0" class="st2 st3 st4">m</tspan></text>
	<polyline class="st6" points="112.7,37.9 112.7,12.3 14.1,12.3 14.1,37.9 	"/>
	<g>
		<defs>
			<polyline id="SVGID_3_" points="112.7,40.5 112.7,14.9 14.1,14.9 14.1,40.5 			"/>
		</defs>
		<clipPath id="SVGID_4_">
			<use xlink:href="#SVGID_3_"  style="overflow:visible;"/>
		</clipPath>
		<path class="st7" d="M27,19.7c0,0.1,0,0.3,0.1,0.5c-0.7,0.3-1,0.5-1,1.6v0.7l-0.5,0.1v-0.8C25.5,20.3,26.1,20,27,19.7 M28.5,19.4
			c0,0.2,0.1,0.3,0.1,0.5c1.3-0.2,1.3,0.4,1.3,1.5v0.4l0.5-0.1v-0.3C30.3,19.6,30,19.1,28.5,19.4 M23.3,23.1v-2.3
			c0-1.4,0.7-1.9,2.1-2.2c2.1-0.5,2.2,0.8,2.2,1.7v2l0.5-0.1v-1.8c0-1.6-0.5-2.8-2.8-2.3c-1.2,0.3-2.5,0.6-2.5,2.7v2.5L23.3,23.1z
			 M29.3,29.2h-3.9v-2.8l3.9-0.6V29.2z M29.3,33.2l-3.9-0.6v-3h3.9V33.2z M25,29.2H22v-2.4l3.1-0.4V29.2z M25,32.6L22,32.1v-2.6H25
			V32.6z M32.8,21.8L19,24.6v10.1l13.9,2.8l2.8-1V22.8L32.8,21.8z"/>
		<path class="st7" d="M45,22.2c0,0.5-0.1,1-0.3,1.4c-0.2,0.4-0.5,0.7-1,0.9c-0.4,0.2-0.9,0.3-1.4,0.3H41v-5.1h1.4
			C44.1,19.7,45,20.5,45,22.2 M44.4,22.2c0-1.3-0.7-1.9-2.1-1.9h-0.8v4h0.8c0.7,0,1.2-0.2,1.6-0.5C44.2,23.3,44.4,22.8,44.4,22.2
			 M49.3,22.9c0,0.6-0.2,1-0.5,1.4c-0.3,0.3-0.8,0.5-1.3,0.5c-0.5,0-1-0.2-1.3-0.5c-0.3-0.3-0.5-0.8-0.5-1.3c0-0.6,0.2-1.1,0.5-1.4
			c0.3-0.3,0.8-0.5,1.4-0.5c0.5,0,1,0.2,1.3,0.5C49.1,21.9,49.3,22.3,49.3,22.9 M48.7,23c0-0.5-0.1-0.8-0.3-1
			c-0.2-0.2-0.5-0.4-0.9-0.4c-0.4,0-0.7,0.1-0.9,0.4c-0.2,0.2-0.3,0.6-0.3,1.1c0,0.4,0.1,0.8,0.3,1c0.2,0.2,0.5,0.4,0.9,0.4
			c0.4,0,0.7-0.1,0.9-0.4C48.6,23.7,48.7,23.4,48.7,23 M54.7,21.1l-1.1,3.6H53l-0.7-2.6c0-0.1,0-0.2-0.1-0.3h0c0,0.1,0,0.2-0.1,0.3
			l-0.8,2.6h-0.6l-1.1-3.6h0.6l0.7,2.7c0,0.1,0,0.2,0.1,0.3h0c0-0.1,0-0.2,0.1-0.3l0.8-2.7h0.5l0.8,2.7c0,0.1,0,0.2,0,0.3h0
			c0-0.1,0-0.2,0.1-0.3l0.7-2.7H54.7z M58.4,24.8h-0.6v-2.1c0-0.8-0.3-1.1-0.8-1.1c-0.3,0-0.5,0.1-0.7,0.3c-0.2,0.2-0.3,0.5-0.3,0.8
			v2.1h-0.6v-3.6H56v0.6h0c0.3-0.5,0.7-0.7,1.2-0.7c0.4,0,0.7,0.1,0.9,0.4c0.2,0.3,0.3,0.6,0.3,1.1V24.8z M60.1,24.8h-0.6v-5.4h0.6
			V24.8z M64.5,22.9c0,0.6-0.2,1-0.5,1.4c-0.3,0.3-0.8,0.5-1.3,0.5c-0.5,0-1-0.2-1.3-0.5C61.1,24,61,23.5,61,23
			c0-0.6,0.2-1.1,0.5-1.4c0.3-0.3,0.8-0.5,1.4-0.5c0.5,0,1,0.2,1.3,0.5C64.4,21.9,64.5,22.3,64.5,22.9 M63.9,23c0-0.5-0.1-0.8-0.3-1
			c-0.2-0.2-0.5-0.4-0.9-0.4c-0.4,0-0.7,0.1-0.9,0.4c-0.2,0.2-0.3,0.6-0.3,1.1c0,0.4,0.1,0.8,0.3,1c0.2,0.2,0.5,0.4,0.9,0.4
			c0.4,0,0.7-0.1,0.9-0.4C63.8,23.7,63.9,23.4,63.9,23 M68,24.8h-0.6v-0.6h0c-0.3,0.4-0.6,0.7-1.1,0.7c-0.3,0-0.6-0.1-0.8-0.3
			c-0.2-0.2-0.3-0.4-0.3-0.8c0-0.7,0.4-1.1,1.2-1.2l1.1-0.2c0-0.6-0.2-0.9-0.7-0.9c-0.4,0-0.8,0.1-1.2,0.4v-0.6
			c0.1-0.1,0.3-0.2,0.5-0.2c0.3-0.1,0.5-0.1,0.7-0.1c0.9,0,1.3,0.5,1.3,1.4V24.8z M67.4,22.9L66.5,23c-0.3,0-0.5,0.1-0.6,0.2
			c-0.1,0.1-0.2,0.3-0.2,0.5c0,0.2,0.1,0.3,0.2,0.4c0.1,0.1,0.3,0.2,0.5,0.2c0.3,0,0.5-0.1,0.7-0.3c0.2-0.2,0.3-0.5,0.3-0.8V22.9z
			 M72.2,24.8h-0.6v-0.6h0c-0.3,0.5-0.7,0.7-1.2,0.7c-0.5,0-0.8-0.2-1.1-0.5C69,24,68.8,23.6,68.8,23c0-0.6,0.2-1.1,0.5-1.4
			c0.3-0.4,0.7-0.5,1.2-0.5c0.5,0,0.9,0.2,1.1,0.6h0v-2.2h0.6V24.8z M71.6,23.1v-0.5c0-0.3-0.1-0.5-0.3-0.7
			c-0.2-0.2-0.4-0.3-0.7-0.3c-0.3,0-0.6,0.1-0.8,0.4c-0.2,0.3-0.3,0.6-0.3,1.1c0,0.4,0.1,0.7,0.3,1c0.2,0.2,0.5,0.4,0.8,0.4
			c0.3,0,0.6-0.1,0.8-0.3C71.5,23.8,71.6,23.5,71.6,23.1 M76.8,19.9c-0.1-0.1-0.2-0.1-0.4-0.1c-0.4,0-0.6,0.3-0.6,0.8v0.6h0.8v0.5
			h-0.8v3.1h-0.6v-3.1h-0.6v-0.5h0.6v-0.6c0-0.4,0.1-0.7,0.3-0.9c0.2-0.2,0.5-0.3,0.8-0.3c0.2,0,0.3,0,0.4,0.1V19.9z M79.2,21.7
			c-0.1-0.1-0.3-0.1-0.4-0.1c-0.3,0-0.5,0.1-0.6,0.4c-0.2,0.2-0.2,0.6-0.2,0.9v1.8h-0.6v-3.6h0.6v0.7h0c0.1-0.3,0.2-0.4,0.4-0.6
			c0.2-0.1,0.4-0.2,0.6-0.2c0.2,0,0.3,0,0.3,0V21.7z M83,22.9c0,0.6-0.2,1-0.5,1.4c-0.3,0.3-0.8,0.5-1.3,0.5c-0.5,0-1-0.2-1.3-0.5
			c-0.3-0.3-0.5-0.8-0.5-1.3c0-0.6,0.2-1.1,0.5-1.4c0.3-0.3,0.8-0.5,1.4-0.5c0.5,0,1,0.2,1.3,0.5C82.9,21.9,83,22.3,83,22.9
			 M82.4,23c0-0.5-0.1-0.8-0.3-1c-0.2-0.2-0.5-0.4-0.9-0.4c-0.4,0-0.7,0.1-0.9,0.4C80.1,22.2,80,22.5,80,23c0,0.4,0.1,0.8,0.3,1
			c0.2,0.2,0.5,0.4,0.9,0.4c0.4,0,0.7-0.1,0.9-0.4C82.3,23.7,82.4,23.4,82.4,23 M89.1,24.8h-0.6v-2.1c0-0.4-0.1-0.7-0.2-0.9
			c-0.1-0.2-0.3-0.3-0.6-0.3c-0.2,0-0.5,0.1-0.6,0.3c-0.2,0.2-0.3,0.5-0.3,0.8v2.1h-0.6v-2.2c0-0.7-0.3-1.1-0.8-1.1
			c-0.3,0-0.5,0.1-0.6,0.3c-0.2,0.2-0.2,0.5-0.2,0.8v2.1h-0.6v-3.6h0.6v0.6h0c0.3-0.4,0.6-0.7,1.1-0.7c0.2,0,0.4,0.1,0.6,0.2
			c0.2,0.1,0.3,0.3,0.4,0.6c0.3-0.5,0.7-0.8,1.2-0.8c0.8,0,1.2,0.5,1.2,1.5V24.8z"/>
		<path class="st7" d="M50.2,28l-2.1,7.6h-1L45.5,30c-0.1-0.2-0.1-0.5-0.1-0.8h0c0,0.3-0.1,0.5-0.1,0.8l-1.6,5.5h-1L40.4,28h1
			l1.6,5.8c0.1,0.3,0.1,0.5,0.1,0.8h0c0-0.2,0.1-0.5,0.2-0.8L45,28h0.9l1.6,5.8c0.1,0.2,0.1,0.5,0.1,0.7h0c0-0.2,0.1-0.4,0.1-0.7
			l1.5-5.8H50.2z M52,28.4c0,0.2-0.1,0.3-0.2,0.4c-0.1,0.1-0.2,0.2-0.4,0.2c-0.2,0-0.3-0.1-0.4-0.2c-0.1-0.1-0.2-0.2-0.2-0.4
			c0-0.2,0.1-0.3,0.2-0.4c0.1-0.1,0.2-0.2,0.4-0.2c0.2,0,0.3,0.1,0.4,0.2C51.9,28.1,52,28.2,52,28.4 M51.8,35.6h-0.9v-5.4h0.9V35.6z
			 M57.6,35.6h-0.9v-3.1c0-1.1-0.4-1.7-1.3-1.7c-0.4,0-0.8,0.2-1.1,0.5C54.1,31.6,54,32,54,32.5v3.1h-0.9v-5.4H54v0.9h0
			c0.4-0.7,1-1,1.8-1c0.6,0,1,0.2,1.4,0.6c0.3,0.4,0.5,0.9,0.5,1.6V35.6z M63.6,35.6h-0.9v-0.9h0c-0.4,0.7-1,1-1.9,1
			c-0.7,0-1.2-0.2-1.6-0.7c-0.4-0.5-0.6-1.1-0.6-2c0-0.9,0.2-1.6,0.7-2.2c0.4-0.5,1-0.8,1.8-0.8c0.7,0,1.3,0.3,1.6,0.9h0v-3.3h0.9
			V35.6z M62.7,33.1v-0.8c0-0.4-0.1-0.8-0.4-1.1c-0.3-0.3-0.7-0.4-1.1-0.4c-0.5,0-0.9,0.2-1.2,0.6c-0.3,0.4-0.5,0.9-0.5,1.6
			c0,0.6,0.1,1.1,0.4,1.5c0.3,0.4,0.7,0.5,1.2,0.5c0.5,0,0.9-0.2,1.2-0.5C62.6,34.1,62.7,33.7,62.7,33.1 M70,32.9
			c0,0.9-0.2,1.5-0.7,2.1c-0.5,0.5-1.1,0.8-2,0.8c-0.8,0-1.4-0.3-1.9-0.8c-0.5-0.5-0.7-1.2-0.7-2c0-0.9,0.2-1.6,0.7-2.1
			c0.5-0.5,1.2-0.8,2-0.8c0.8,0,1.4,0.3,1.9,0.8C69.7,31.3,70,32,70,32.9 M69.1,32.9c0-0.7-0.1-1.2-0.5-1.6
			c-0.3-0.4-0.7-0.5-1.3-0.5c-0.6,0-1,0.2-1.3,0.6c-0.3,0.4-0.5,0.9-0.5,1.6c0,0.6,0.2,1.2,0.5,1.5c0.3,0.4,0.8,0.5,1.3,0.5
			c0.6,0,1-0.2,1.3-0.5C68.9,34.1,69.1,33.6,69.1,32.9 M77.8,30.2l-1.6,5.4h-0.9l-1.1-3.9c0-0.1-0.1-0.3-0.1-0.5h0
			c0,0.1,0,0.3-0.1,0.5l-1.2,3.9h-0.9l-1.6-5.4h0.9l1.1,4.1c0,0.1,0.1,0.3,0.1,0.5h0c0-0.1,0-0.3,0.1-0.5l1.2-4h0.8l1.1,4.1
			c0,0.1,0.1,0.3,0.1,0.5h0c0-0.2,0-0.3,0.1-0.5l1.1-4.1H77.8z M81.5,34.1c0,0.5-0.2,0.8-0.5,1.1c-0.4,0.3-0.8,0.4-1.4,0.4
			c-0.5,0-1-0.1-1.3-0.3v-0.9c0.4,0.3,0.9,0.5,1.4,0.5c0.7,0,1-0.3,1-0.8c0-0.2-0.1-0.4-0.2-0.5c-0.1-0.1-0.4-0.3-0.9-0.5
			c-0.5-0.2-0.8-0.4-1-0.7c-0.2-0.2-0.3-0.5-0.3-0.9c0-0.4,0.2-0.8,0.5-1.1c0.4-0.3,0.8-0.4,1.4-0.4c0.4,0,0.8,0.1,1.2,0.3v0.9
			c-0.4-0.3-0.8-0.4-1.2-0.4c-0.3,0-0.5,0.1-0.7,0.2c-0.2,0.1-0.3,0.3-0.3,0.5c0,0.2,0.1,0.4,0.2,0.6c0.1,0.1,0.4,0.3,0.8,0.5
			c0.5,0.2,0.9,0.4,1.1,0.7C81.4,33.5,81.5,33.8,81.5,34.1"/>
		<path class="st7" d="M89.2,33.7c0,0.6-0.2,1.1-0.7,1.5c-0.4,0.4-1.1,0.5-1.8,0.5c-0.3,0-0.6,0-1-0.1c-0.4-0.1-0.6-0.2-0.8-0.3v-1
			c0.2,0.2,0.5,0.4,0.8,0.5c0.4,0.1,0.7,0.2,1,0.2c1,0,1.5-0.4,1.5-1.1c0-0.3-0.1-0.6-0.3-0.8c-0.2-0.2-0.6-0.5-1.3-0.9
			c-0.6-0.4-1.1-0.7-1.3-1c-0.3-0.3-0.4-0.7-0.4-1.2c0-0.6,0.2-1.1,0.7-1.5c0.4-0.4,1-0.6,1.7-0.6c0.7,0,1.2,0.1,1.5,0.3v1
			c-0.4-0.3-0.9-0.5-1.5-0.5c-0.4,0-0.8,0.1-1,0.3c-0.3,0.2-0.4,0.5-0.4,0.8c0,0.2,0,0.5,0.1,0.6c0.1,0.2,0.2,0.3,0.4,0.4
			c0.2,0.1,0.5,0.3,1,0.6c0.7,0.4,1.1,0.7,1.4,1.1C89.1,32.9,89.2,33.2,89.2,33.7 M92.8,35.5c-0.2,0.1-0.5,0.2-0.8,0.2
			c-0.9,0-1.4-0.5-1.4-1.6v-3.2h-0.9v-0.7h0.9v-1.3l0.9-0.3v1.6h1.4v0.7h-1.4v3c0,0.4,0.1,0.6,0.2,0.8c0.1,0.2,0.3,0.2,0.6,0.2
			c0.2,0,0.4-0.1,0.6-0.2V35.5z M98.7,32.9c0,0.9-0.2,1.5-0.7,2.1c-0.5,0.5-1.1,0.8-2,0.8c-0.8,0-1.4-0.3-1.9-0.8
			c-0.5-0.5-0.7-1.2-0.7-2c0-0.9,0.2-1.6,0.7-2.1c0.5-0.5,1.2-0.8,2-0.8c0.8,0,1.4,0.3,1.9,0.8C98.5,31.3,98.7,32,98.7,32.9
			 M97.9,32.9c0-0.7-0.2-1.2-0.5-1.6c-0.3-0.4-0.7-0.5-1.3-0.5c-0.6,0-1,0.2-1.3,0.6c-0.3,0.4-0.5,0.9-0.5,1.6
			c0,0.6,0.2,1.2,0.5,1.5c0.3,0.4,0.8,0.5,1.3,0.5c0.6,0,1-0.2,1.3-0.5C97.7,34.1,97.9,33.6,97.9,32.9 M102.5,31
			c-0.2-0.1-0.4-0.2-0.7-0.2c-0.4,0-0.7,0.2-0.9,0.5c-0.2,0.4-0.4,0.8-0.4,1.4v2.8h-0.9v-5.4h0.9v1.1h0c0.1-0.4,0.3-0.7,0.6-0.9
			c0.3-0.2,0.5-0.3,0.9-0.3c0.2,0,0.4,0,0.5,0.1V31z M107.7,33.1h-3.8c0,0.6,0.2,1.1,0.5,1.4c0.3,0.3,0.7,0.5,1.3,0.5
			c0.6,0,1.2-0.2,1.7-0.6v0.8c-0.5,0.3-1.1,0.5-1.9,0.5c-0.8,0-1.4-0.2-1.8-0.7c-0.4-0.5-0.6-1.2-0.6-2.1c0-0.5,0.1-1,0.3-1.5
			c0.2-0.4,0.5-0.8,0.9-1c0.4-0.2,0.8-0.4,1.3-0.4c0.7,0,1.2,0.2,1.6,0.7c0.4,0.5,0.6,1.1,0.6,1.9V33.1z M106.8,32.4
			c0-0.5-0.1-0.9-0.4-1.2c-0.2-0.3-0.6-0.4-1-0.4c-0.4,0-0.7,0.1-1,0.4c-0.3,0.3-0.5,0.7-0.5,1.1H106.8z"/>
	</g>
</g>
</svg>
